<svg width="390" height="390" viewBox="0 0 390 390" fill="none" xmlns="http://www.w3.org/2000/svg">
<path d="M195.154 326.39C262.066 326.39 316.308 272.148 316.308 205.236C316.308 138.325 262.066 84.082 195.154 84.082C128.243 84.082 74 138.325 74 205.236C74 272.148 128.243 326.39 195.154 326.39Z" stroke="#C9A063" stroke-width="12" stroke-miterlimit="10"/>
<path d="M83.339 158.523L306.876 158.296" stroke="#C9A063" stroke-width="12" stroke-miterlimit="10"/>
<path d="M195.154 84.082C195.154 189.626 241.664 275.03 299.142 275.03" stroke="#C9A063" stroke-width="12" stroke-miterlimit="10"/>
<path d="M195.154 326.39C195.154 259.424 249.342 205.236 316.308 205.236" stroke="#C9A063" stroke-width="12" stroke-miterlimit="10"/>
<path d="M105.157 284.102C109.493 297.222 141.858 298.302 177.519 286.516" stroke="#C9A063" stroke-width="12" stroke-miterlimit="10"/>
<path d="M241.223 89.225C265.677 93.367 289.008 75.8 293.386 49.948" stroke="#C9A063" stroke-width="12" stroke-miterlimit="10"/>
<path d="M293.386 49.948C268.932 45.806 245.601 63.373 241.223 89.225Z" fill="#C9A063"/>
<path d="M293.386 49.948C268.932 45.806 245.601 63.373 241.223 89.225" stroke="#C9A063" stroke-width="12" stroke-miterlimit="10"/>
<path d="M242.064 82.291C259.861 65.016 259.485 35.814 241.223 17" stroke="#C9A063" stroke-width="12" stroke-miterlimit="10"/>
<path d="M241.223 17C223.426 34.275 223.803 63.477 242.064 82.291Z" fill="#C9A063"/>
<path d="M241.223 17C223.426 34.275 223.803 63.477 242.064 82.291" stroke="#C9A063" stroke-width="12" stroke-miterlimit="10"/>
<path d="M110.116 196.892H163.416C161.776 220.712 150.486 239.122 136.766 239.122C123.056 239.122 111.756 220.712 110.116 196.892Z" fill="#C9A063"/>
<path d="M109.906 196.892H110.116H163.416H163.626" stroke="#C9A063" stroke-width="12" stroke-miterlimit="10"/>
<path d="M109.906 190.892C109.906 192.922 109.976 194.932 110.116 196.892C111.756 220.712 123.056 239.122 136.766 239.122" stroke="#C9A063" stroke-width="12" stroke-miterlimit="10"/>
<path d="M163.626 190.892C163.626 192.922 163.556 194.932 163.416 196.892C161.776 220.712 150.486 239.122 136.766 239.122" stroke="#C9A063" stroke-width="12" stroke-miterlimit="10"/>
<path d="M123.417 215.614C126.283 215.614 128.606 213.291 128.606 210.425C128.606 207.559 126.283 205.236 123.417 205.236C120.551 205.236 118.228 207.559 118.228 210.425C118.228 213.291 120.551 215.614 123.417 215.614Z" stroke="white" stroke-width="12" stroke-miterlimit="10"/>
<path d="M121.718 346.759C123.038 344.879 124.397 342.959 125.797 341C126.637 341.359 127.357 341.8 127.997 342.319C127.037 343.879 126.077 345.438 125.078 346.959C130.197 347.238 135.316 347.559 140.435 347.879C140.595 348.318 140.675 348.798 140.675 349.358C140.675 349.757 140.595 350.158 140.435 350.597C134.556 350.517 128.757 350.318 123.078 349.957C122.438 350.957 121.758 351.917 121.118 352.837C119.518 355.397 118.038 357.596 116.759 359.396C116.119 360.356 115.519 361.196 114.999 361.916C114.52 362.636 113.999 363.275 113.479 363.836C112.439 363.516 111.679 362.996 111.279 362.276C112.479 360.356 114.758 356.957 118.038 351.998C118.518 351.278 119.038 350.518 119.598 349.758C116.438 349.559 113.319 349.319 110.24 349.038C110.08 348.559 110 348.078 110 347.639C110 347.159 110.08 346.679 110.24 346.239C114.079 346.399 117.878 346.599 121.718 346.759ZM122.357 357.078C122.357 358.157 122.357 359.197 122.397 360.237C122.837 360.237 123.357 360.197 123.997 360.197C126.757 360.197 128.916 360.277 130.516 360.397C130.596 360.756 130.676 361.157 130.676 361.557C130.676 361.956 130.636 362.317 130.596 362.636C129.196 362.716 126.956 362.716 123.837 362.716C123.237 362.716 122.757 362.716 122.397 362.676V365.075H123.917C126.796 365.075 129.036 365.195 130.676 365.355C130.756 365.715 130.796 366.075 130.796 366.475C130.796 366.874 130.756 367.235 130.756 367.554H123.797C123.237 367.554 122.757 367.554 122.397 367.515C122.397 369.235 122.437 370.874 122.437 372.514C122.117 372.673 121.637 372.753 120.997 372.753C120.477 372.753 120.038 372.713 119.678 372.673C119.438 367.594 119.358 362.435 119.358 357.156C119.838 357.116 120.358 357.076 120.918 356.996C121.477 356.998 121.957 357.038 122.357 357.078ZM136.315 354.918C137.195 361.157 137.635 366.956 137.635 372.356C136.236 372.556 134.276 372.675 131.756 372.675C131.516 371.875 131.436 371.276 131.436 370.796C132.556 370.636 133.596 370.516 134.556 370.436C134.236 366.197 133.956 361.917 133.636 357.678C130.436 357.478 127.317 357.279 124.198 357.118C124.158 356.798 124.158 356.318 124.158 355.718C124.158 355.399 124.198 354.998 124.278 354.559C128.676 354.558 132.716 354.678 136.315 354.918Z" fill="black"/>
<path d="M180.317 350.199C180.437 352.558 180.516 354.758 180.596 356.758C184.196 356.678 187.955 356.558 191.874 356.439C191.994 356.758 192.074 357.199 192.074 357.678C192.074 358.358 192.034 358.838 191.954 359.117C188.154 359.357 184.355 359.557 180.596 359.678C180.596 363.877 180.516 367.596 180.397 370.876C180.157 370.956 179.676 371.035 178.957 371.035C178.357 371.035 177.957 370.956 177.718 370.876C177.478 368.836 177.358 366.677 177.278 364.437C174.399 366.117 171.399 367.636 168.24 368.916C167.52 368.395 166.92 367.796 166.52 367.116C169.399 364.957 172.958 363.077 177.198 361.477C177.158 360.916 177.158 360.357 177.158 359.797C173.119 359.956 169.08 360.036 165.001 360.076C164.881 359.276 164.841 358.396 164.841 357.476C168.72 357.277 172.839 357.077 177.158 356.876C177.198 354.717 177.278 352.517 177.438 350.197C177.838 350.117 178.318 350.037 178.877 350.037C179.437 350.039 179.916 350.119 180.317 350.199ZM188.835 346.439C181.756 347.239 174.637 347.719 167.519 347.918C167.119 347.278 166.958 346.358 166.958 345.159C173.837 344.598 181.036 344.159 188.515 343.799C188.715 344.599 188.835 345.479 188.835 346.439ZM191.395 365.916C191.235 366.316 190.995 366.716 190.754 367.076C190.555 367.516 190.315 367.916 189.994 368.236C187.795 367.595 185.715 366.556 183.756 365.116C184.075 364.196 184.596 363.396 185.235 362.717C187.236 363.676 189.315 364.716 191.395 365.916Z" fill="black"/>
<path d="M247.033 342.88C247.233 347.8 247.353 352.238 247.353 356.198C247.353 363.157 247.153 368.236 246.793 371.435C242.833 371.675 237.634 371.834 231.155 371.834C224.436 371.834 219.797 371.755 217.237 371.595C216.758 364.476 216.477 356.477 216.397 347.679C216.757 347.599 217.157 347.519 217.637 347.519C218.197 347.519 218.677 347.599 218.996 347.679C219.276 354.957 219.557 362.157 219.796 369.196C228.155 369.196 236.274 369.196 244.192 369.116V345.28C240.753 345.2 237.073 345.12 233.194 345.04C228.795 345.16 224.796 345.2 221.156 345.2C221.036 344.84 220.996 344.48 220.996 344.08C220.996 343.601 220.996 343.2 221.076 342.88C223.956 342.641 228.195 342.481 233.754 342.401C238.554 342.4 242.954 342.56 247.033 342.88ZM232.156 354.678C232.236 354.797 232.316 354.877 232.316 354.957C232.316 357.396 232.196 359.837 232.036 362.276C231.236 362.515 229.717 362.635 227.516 362.635C225.676 362.635 224.077 362.515 222.757 362.236C222.557 362.076 222.437 361.796 222.437 361.396C222.437 359.316 222.517 357.197 222.717 355.037C223.037 354.957 223.477 354.877 223.957 354.877C224.396 354.877 224.797 354.957 225.156 355.037V360.276H229.475C229.515 359.196 229.555 357.997 229.635 356.676C228.315 356.636 227.156 356.516 226.156 356.357C226.156 355.636 226.196 354.957 226.316 354.317C228.436 354.398 230.396 354.518 232.156 354.678ZM233.036 349.718C232.716 348.958 232.436 348.198 232.156 347.439C232.796 347.159 233.515 346.919 234.395 346.719C234.755 347.679 235.195 348.719 235.675 349.838C236.755 349.918 237.834 349.958 238.914 350.038C238.914 350.838 238.834 351.678 238.674 352.558C238.034 352.558 237.395 352.558 236.794 352.518C237.395 353.957 238.074 355.438 238.834 357.038C239.554 356.318 240.273 355.638 240.994 354.958C241.674 355.519 242.313 356.158 242.913 356.798C242.193 357.718 241.273 358.718 240.154 359.838C240.473 360.598 240.834 361.358 241.193 362.077C241.633 361.757 242.073 361.517 242.553 361.317C242.952 361.716 243.233 362.197 243.393 362.837C242.633 363.637 241.513 364.276 240.074 364.717C239.513 363.957 238.874 362.957 238.234 361.717C237.914 361.997 237.633 362.278 237.394 362.517C236.474 363.477 235.594 364.277 234.714 364.917C233.994 364.437 233.434 363.877 232.994 363.157C234.273 361.717 235.554 360.357 236.873 358.998C235.993 357.158 235.073 354.958 234.114 352.478C230.194 352.398 226.355 352.198 222.555 351.838V350.518C222.555 350.159 222.555 349.798 222.635 349.439C225.756 349.439 229.236 349.559 233.036 349.718ZM229.396 364.436C229.476 364.796 229.556 365.196 229.556 365.636C229.556 366.035 229.516 366.436 229.476 366.755C228.916 366.915 227.956 366.995 226.636 366.995C225.357 366.995 224.397 366.955 223.837 366.835C223.677 366.556 223.597 366.195 223.597 365.716C223.597 365.276 223.637 364.876 223.757 364.516C224.196 364.436 225.196 364.356 226.796 364.356C227.916 364.356 228.756 364.396 229.396 364.436ZM243.154 349.718C242.554 350.279 241.835 350.718 240.995 351.118C240.115 350.158 239.354 349.078 238.795 347.958C239.355 347.479 240.075 346.999 240.915 346.519C241.754 347.519 242.514 348.599 243.154 349.718Z" fill="black"/>
<path d="M298.752 352.718C298.752 353.638 298.672 354.518 298.513 355.358C289.075 355.358 279.836 355.078 270.797 354.518C270.797 353.518 270.877 352.598 271.117 351.758C280.436 351.758 289.634 352.079 298.752 352.718ZM284.116 364.356C285.796 362.676 287.395 361.077 288.995 359.557C289.715 360.117 290.354 360.717 290.994 361.397C289.635 362.997 288.275 364.556 286.835 366.076C288.915 367.436 290.994 368.796 293.074 370.195C292.754 370.995 292.194 371.675 291.394 372.315C288.995 371.035 286.754 369.755 284.595 368.395C283.075 369.916 281.516 371.435 279.875 372.915C279.075 372.355 278.396 371.676 277.916 370.876C279.275 369.396 280.596 367.996 281.915 366.637C280.075 365.397 278.355 364.117 276.716 362.757C277.196 361.917 277.716 361.237 278.316 360.757C280.236 361.957 282.196 363.157 284.116 364.356ZM289.995 344.799C289.915 345.719 289.715 346.599 289.314 347.399C287.075 347.399 283.835 346.759 279.596 345.399C279.716 344.4 279.955 343.52 280.276 342.72C283.515 343.24 286.754 343.92 289.995 344.799Z" fill="black"/>
</svg>
