<svg width="350" height="350" viewBox="0 0 350 350" fill="none" xmlns="http://www.w3.org/2000/svg">
<path d="M175.154 329.39C242.066 329.39 296.308 275.148 296.308 208.236C296.308 141.325 242.066 87.082 175.154 87.082C108.243 87.082 54 141.325 54 208.236C54 275.148 108.243 329.39 175.154 329.39Z" stroke="#C9A063" stroke-width="12" stroke-miterlimit="10"/>
<path d="M63.339 161.523L286.876 161.296" stroke="#C9A063" stroke-width="12" stroke-miterlimit="10"/>
<path d="M175.154 87.082C175.154 192.626 221.664 278.03 279.142 278.03" stroke="#C9A063" stroke-width="12" stroke-miterlimit="10"/>
<path d="M175.154 329.39C175.154 262.424 229.342 208.236 296.308 208.236" stroke="#C9A063" stroke-width="12" stroke-miterlimit="10"/>
<path d="M85.157 287.102C89.493 300.222 121.858 301.302 157.519 289.516" stroke="#C9A063" stroke-width="12" stroke-miterlimit="10"/>
<path d="M221.223 92.225C245.677 96.367 269.008 78.8 273.386 52.948" stroke="#C9A063" stroke-width="12" stroke-miterlimit="10"/>
<path d="M273.386 52.948C248.932 48.806 225.601 66.373 221.223 92.225Z" fill="#C9A063"/>
<path d="M273.386 52.948C248.932 48.806 225.601 66.373 221.223 92.225" stroke="#C9A063" stroke-width="12" stroke-miterlimit="10"/>
<path d="M222.064 85.291C239.861 68.016 239.485 38.814 221.223 20" stroke="#C9A063" stroke-width="12" stroke-miterlimit="10"/>
<path d="M221.223 20C203.426 37.275 203.803 66.477 222.064 85.291Z" fill="#C9A063"/>
<path d="M221.223 20C203.426 37.275 203.803 66.477 222.064 85.291" stroke="#C9A063" stroke-width="12" stroke-miterlimit="10"/>
<path d="M90.116 199.892H143.416C141.776 223.712 130.486 242.122 116.766 242.122C103.056 242.122 91.756 223.712 90.116 199.892Z" fill="#C9A063"/>
<path d="M89.906 199.892H90.116H143.416H143.626" stroke="#C9A063" stroke-width="12" stroke-miterlimit="10"/>
<path d="M89.906 193.892C89.906 195.922 89.976 197.932 90.116 199.892C91.756 223.712 103.056 242.122 116.766 242.122" stroke="#C9A063" stroke-width="12" stroke-miterlimit="10"/>
<path d="M143.626 193.892C143.626 195.922 143.556 197.932 143.416 199.892C141.776 223.712 130.486 242.122 116.766 242.122" stroke="#C9A063" stroke-width="12" stroke-miterlimit="10"/>
<path d="M103.417 218.614C106.283 218.614 108.606 216.291 108.606 213.425C108.606 210.559 106.283 208.236 103.417 208.236C100.551 208.236 98.228 210.559 98.228 213.425C98.228 216.291 100.551 218.614 103.417 218.614Z" stroke="white" stroke-width="12" stroke-miterlimit="10"/>
</svg>
